<?xml version="1.0" standalone="no"?>
<!DOCTYPE svg PUBLIC "-//W3C//DTD SVG 20010904//EN"
 "http://www.w3.org/TR/2001/REC-SVG-20010904/DTD/svg10.dtd">
<svg version="1.0" xmlns="http://www.w3.org/2000/svg"
 width="420.000000pt" height="420.000000pt" viewBox="0 0 420.000000 420.000000"
 preserveAspectRatio="xMidYMid meet">
<metadata>
Created by potrace 1.11, written by Peter Selinger 2001-2013
</metadata>
<g transform="translate(0.000000,420.000000) scale(0.100000,-0.100000)"
fill="#000000" stroke="none">
<path d="M1625 3686 c-165 -38 -285 -107 -422 -239 -111 -108 -181 -201 -242
-323 -38 -77 -101 -251 -101 -279 0 -9 -24 -21 -61 -31 -67 -19 -161 -82 -202
-136 -28 -36 -60 -98 -201 -393 -51 -104 -122 -247 -159 -317 -108 -202 -146
-344 -133 -499 19 -232 148 -464 331 -594 127 -91 354 -186 558 -234 341 -80
861 -141 1212 -141 243 0 553 44 740 105 163 53 361 163 475 262 41 36 51 40
116 46 90 7 158 38 189 86 29 43 48 125 40 167 -4 26 -1 32 20 42 42 19 113
92 125 128 14 42 6 82 -25 128 -12 18 -30 67 -39 107 -33 143 -99 267 -201
377 -32 34 -56 64 -54 66 2 2 29 16 58 32 63 34 155 115 196 173 20 29 39 44
66 51 45 12 89 61 89 98 0 19 11 35 34 54 49 39 62 86 42 148 -13 40 -14 54
-4 76 11 25 10 29 -29 63 -25 21 -44 48 -48 66 -10 52 -42 93 -92 119 -27 13
-55 36 -63 51 -22 42 -120 126 -175 151 -27 13 -74 29 -104 37 l-54 14 -17 70
c-33 141 -101 239 -218 316 -147 97 -324 135 -488 106 -90 -15 -148 -36 -274
-98 l-115 -57 -85 58 c-87 59 -188 105 -295 133 -84 23 -312 29 -390 11z
m2139 -991 c44 -8 122 -28 173 -46 106 -37 123 -55 123 -130 0 -55 -43 -97
-126 -123 -32 -10 -64 -21 -70 -23 -7 -2 -14 13 -18 39 -8 52 -49 144 -79 176
-65 70 -182 87 -313 44 -139 -46 -214 -133 -222 -258 -5 -80 -2 -79 -175 -59
-77 9 -200 52 -214 74 -11 17 -9 26 7 55 12 18 24 53 28 77 l7 43 102 32 c301
95 592 132 777 99z m-925 -42 c17 -33 23 -109 11 -151 -13 -51 -60 -106 -112
-133 -40 -21 -58 -18 -58 7 0 31 -54 128 -92 165 -55 53 -121 73 -217 66 -144
-11 -256 -70 -302 -158 -11 -22 -23 -69 -26 -105 -4 -41 -10 -63 -17 -61 -6 2
-38 12 -71 22 -75 21 -196 81 -278 137 l-62 42 114 12 c159 17 260 37 448 88
218 60 355 81 555 84 84 2 99 0 107 -15z m651 -83 c25 -25 25 -32 2 -60 -14
-18 -25 -21 -45 -16 -35 8 -46 49 -22 76 23 25 40 25 65 0z m-1199 -30 c29
-16 26 -67 -5 -81 -34 -16 -66 3 -66 41 0 41 33 60 71 40z m1369 -58 c43 -35
15 -112 -39 -112 -26 0 -61 38 -61 65 0 30 32 65 59 65 10 0 29 -8 41 -18z
m-1160 -38 c20 -23 16 -75 -5 -90 -42 -31 -105 -3 -105 46 0 9 7 26 16 38 18
26 75 30 94 6z m950 -49 c10 -12 10 -18 0 -30 -25 -30 -61 -7 -46 30 3 8 12
15 19 15 8 0 20 -7 27 -15z m-1166 -41 c21 -8 21 -43 0 -51 -8 -3 -23 1 -31
10 -13 13 -14 19 -3 31 14 18 13 18 34 10z"/>
</g>
</svg>
